REM DIRINDEX 1\3,1\4,1\5,1\6,1\2\7,1\2\8,1\2\9,1\2\10,1\2\11
REM DIRNAME folder01,folder02,folder03,folder04,folder05,folder06,folder07,folder08,folder09,folder10,folder11
TITLE ""
FILE "DISC5Track28.mp3" MP3
  TRACK 01 AUDIO
    TITLE "0:"
    INDEX 01 00:00:00
  TRACK 02 AUDIO
    TITLE "3:cjc021_5569"
    INDEX 01 00:00:23
  TRACK 03 AUDIO
    TITLE "0:"
    INDEX 01 00:01:44
  TRACK 04 AUDIO
    TITLE "4:cjc021_5570"
    INDEX 01 00:03:21
  TRACK 05 AUDIO
    TITLE "0:"
    INDEX 01 00:04:42
  TRACK 06 AUDIO
    TITLE "5:cjc021_5571"
    INDEX 01 00:05:03
  TRACK 07 AUDIO
    TITLE "0:"
    INDEX 01 00:08:05
  TRACK 08 AUDIO
    TITLE "3:cjc021_5572"
    INDEX 01 00:09:42
  TRACK 09 AUDIO
    TITLE "0:"
    INDEX 01 00:10:51
  TRACK 10 AUDIO
    TITLE "4:cjc021_5573"
    INDEX 01 00:12:26
  TRACK 11 AUDIO
    TITLE "0:"
    INDEX 01 00:13:37
  TRACK 12 AUDIO
    TITLE "5:cjc021_5574"
    INDEX 01 00:13:73
  TRACK 13 AUDIO
    TITLE "0:"
    INDEX 01 00:15:72
  TRACK 14 AUDIO
    TITLE "3:cjc021_5575"
    INDEX 01 00:17:33
  TRACK 15 AUDIO
    TITLE "0:"
    INDEX 01 00:18:54
  TRACK 16 AUDIO
    TITLE "4:cjc021_5576"
    INDEX 01 00:20:28
  TRACK 17 AUDIO
    TITLE "0:"
    INDEX 01 00:21:45
  TRACK 18 AUDIO
    TITLE "5:cjc021_5577"
    INDEX 01 00:22:07
  TRACK 19 AUDIO
    TITLE "0:"
    INDEX 01 00:24:57
  TRACK 20 AUDIO
    TITLE "3:cjc021_5578"
    INDEX 01 00:26:18
  TRACK 21 AUDIO
    TITLE "0:"
    INDEX 01 00:27:36
  TRACK 22 AUDIO
    TITLE "4:cjc021_5579"
    INDEX 01 00:29:11
  TRACK 23 AUDIO
    TITLE "0:"
    INDEX 01 00:30:30
  TRACK 24 AUDIO
    TITLE "5:cjc021_5580"
    INDEX 01 00:30:65
  TRACK 25 AUDIO
    TITLE "0:"
    INDEX 01 00:33:54
  TRACK 26 AUDIO
    TITLE "3:cjc021_5581"
    INDEX 01 00:35:14
  TRACK 27 AUDIO
    TITLE "0:"
    INDEX 01 00:36:21
  TRACK 28 AUDIO
    TITLE "4:cjc021_5582"
    INDEX 01 00:37:69
  TRACK 29 AUDIO
    TITLE "0:"
    INDEX 01 00:39:03
  TRACK 30 AUDIO
    TITLE "5:cjc021_5583"
    INDEX 01 00:39:37
  TRACK 31 AUDIO
    TITLE "0:"
    INDEX 01 00:41:59
  TRACK 32 AUDIO
    TITLE "3:cjc021_5584"
    INDEX 01 00:43:19
  TRACK 33 AUDIO
    TITLE "0:"
    INDEX 01 00:44:26
  TRACK 34 AUDIO
    TITLE "4:cjc021_5585"
    INDEX 01 00:46:00
  TRACK 35 AUDIO
    TITLE "0:"
    INDEX 01 00:47:09
  TRACK 36 AUDIO
    TITLE "5:cjc021_5586"
    INDEX 01 00:47:42
  TRACK 37 AUDIO
    TITLE "0:"
    INDEX 01 00:49:41
  TRACK 38 AUDIO
    TITLE "3:cjc021_5587"
    INDEX 01 00:51:05
  TRACK 39 AUDIO
    TITLE "0:"
    INDEX 01 00:52:06
  TRACK 40 AUDIO
    TITLE "4:cjc021_5588"
    INDEX 01 00:53:55
  TRACK 41 AUDIO
    TITLE "0:"
    INDEX 01 00:54:56
  TRACK 42 AUDIO
    TITLE "5:cjc021_5589"
    INDEX 01 00:55:16
  TRACK 43 AUDIO
    TITLE "0:"
    INDEX 01 00:59:04
  TRACK 44 AUDIO
    TITLE "3:cjc021_5590"
    INDEX 01 01:00:39
  TRACK 45 AUDIO
    TITLE "0:"
    INDEX 01 01:01:46
  TRACK 46 AUDIO
    TITLE "4:cjc021_5591"
    INDEX 01 01:03:20
  TRACK 47 AUDIO
    TITLE "0:"
    INDEX 01 01:04:23
  TRACK 48 AUDIO
    TITLE "5:cjc021_5592"
    INDEX 01 01:04:60
  TRACK 49 AUDIO
    TITLE "0:"
    INDEX 01 01:08:27
  TRACK 50 AUDIO
    TITLE "3:cjc021_5593"
    INDEX 01 01:09:67
  TRACK 51 AUDIO
    TITLE "0:"
    INDEX 01 01:11:05
  TRACK 52 AUDIO
    TITLE "4:cjc021_5594"
    INDEX 01 01:12:56
  TRACK 53 AUDIO
    TITLE "0:"
    INDEX 01 01:13:69
  TRACK 54 AUDIO
    TITLE "5:cjc021_5595"
    INDEX 01 01:14:31
  TRACK 55 AUDIO
    TITLE "0:"
    INDEX 01 01:16:60
  TRACK 56 AUDIO
    TITLE "3:cjc021_5596"
    INDEX 01 01:18:21
  TRACK 57 AUDIO
    TITLE "0:"
    INDEX 01 01:19:60
  TRACK 58 AUDIO
    TITLE "4:cjc021_5597"
    INDEX 01 01:21:39
  TRACK 59 AUDIO
    TITLE "0:"
    INDEX 01 01:23:03
  TRACK 60 AUDIO
    TITLE "5:cjc021_5598"
    INDEX 01 01:23:42
  TRACK 61 AUDIO
    TITLE "0:"
    INDEX 01 01:27:18
